<svg height="512" viewBox="0 0 64 64" width="512" xmlns="http://www.w3.org/2000/svg" fill="white"><path d="m31 2h2v4h-2z"/><path d="m17.565 7.565h2v4h-2z" transform="matrix(.707 -.707 .707 .707 -1.327 15.925)"/><path d="m43.435 8.565h4v2h-4z" transform="matrix(.707 -.707 .707 .707 6.544 34.929)"/><path d="m61 14h-17a15.031 15.031 0 0 0 -24.035 0h-16.965a1 1 0 0 0 -1 1v42a1 1 0 0 0 1 1h22.685a6.985 6.985 0 0 0 12.63 0h22.685a1 1 0 0 0 1-1v-42a1 1 0 0 0 -1-1zm-31.115-3.832a13 13 0 0 1 15.115 12.832 13.811 13.811 0 0 1 -5.361 10.841 6.837 6.837 0 0 0 -2.639 5.469v.69h-2v-17a1 1 0 0 0 -.051-.316l-2-6a1 1 0 0 0 -1.9 0l-2 6a1 1 0 0 0 -.049.316v17h-2v-.69a6.915 6.915 0 0 0 -2.694-5.51 13.7 13.7 0 0 1 -4.306-15.841 12.887 12.887 0 0 1 9.885-7.791zm9.115 39.832a2 2 0 0 1 -2 2h-10a2 2 0 0 1 0-4h10a2 2 0 0 1 2 2zm-12-4a2 2 0 0 1 0-4h10a2 2 0 0 1 0 4zm4-22h2v16h-2zm.387-2 .613-1.838.613 1.838zm-27.387 34v-40h14.711c-.2.391-.4.789-.566 1.2a15.515 15.515 0 0 0 4.955 18.2 4.909 4.909 0 0 1 1.9 3.91v1.246a3.957 3.957 0 0 0 -.618 6.444 3.957 3.957 0 0 0 .618 6.444v1.556a7.026 7.026 0 0 0 .08 1zm33-1a5 5 0 0 1 -10 0v-1h10zm23 1h-21.08a7.026 7.026 0 0 0 .08-1v-1.556a3.957 3.957 0 0 0 .618-6.444 3.957 3.957 0 0 0 -.618-6.444v-1.246a4.829 4.829 0 0 1 1.842-3.872 15.631 15.631 0 0 0 6.158-12.438 14.961 14.961 0 0 0 -1.756-7h14.756z"/><path d="m6 20h8v2h-8z"/><path d="m6 26h8v2h-8z"/><path d="m6 32h10v2h-10z"/><path d="m6 38h12v2h-12z"/><path d="m6 44h12v2h-12z"/><path d="m6 50h12v2h-12z"/><path d="m50 20h8v2h-8z"/><path d="m50 26h8v2h-8z"/><path d="m48 32h10v2h-10z"/><path d="m46 38h12v2h-12z"/><path d="m46 44h12v2h-12z"/><path d="m46 50h12v2h-12z"/></svg>
