<svg id="Capa_1" enable-background="new 0 0 512 512" height="512" viewBox="0 0 512 512" width="512" xmlns="http://www.w3.org/2000/svg" fill="white"><g><g><g><path d="m210.796 359.6h-40.792c-5.522 0-10-4.478-10-10s4.477-10 10-10h40.792c5.522 0 10 4.478 10 10s-4.478 10-10 10z"/></g><g><path d="m341.996 359.6h-40.792c-5.522 0-10-4.478-10-10s4.477-10 10-10h40.792c5.522 0 10 4.478 10 10s-4.478 10-10 10z"/></g><g><path d="m255.819 359.598c-4.172 0-8.015-2.696-9.414-6.632-1.379-3.881-.204-8.326 2.946-10.99 3.287-2.781 8.082-3.115 11.741-.864 3.501 2.155 5.33 6.408 4.528 10.436-.921 4.621-5.088 8.05-9.801 8.05z"/></g><g><g><path d="m314.041 398.999h-116.083c-5.522 0-10-4.478-10-10s4.477-10 10-10h116.083c5.522 0 10 4.478 10 10s-4.477 10-10 10z"/></g></g><path d="m298.52 236.421c13.437-11.821 21.93-29.136 21.93-48.398 0-35.54-28.912-64.453-64.45-64.453s-64.45 28.913-64.45 64.453c0 19.262 8.493 36.577 21.93 48.398-22.704 8.671-38.872 30.68-38.872 56.395v17.145c0 5.522 4.477 10 10 10h142.785c5.522 0 10-4.478 10-10v-17.145c-.001-25.715-16.169-47.724-38.873-56.395zm-42.52-92.851c24.511 0 44.451 19.941 44.451 44.453s-19.941 44.453-44.451 44.453-44.451-19.941-44.451-44.453 19.94-44.453 44.451-44.453zm61.393 156.39h-122.786v-7.145c0-22.243 18.096-40.34 40.338-40.34h42.109c22.242 0 40.338 18.097 40.338 40.34v7.145z"/><path d="m120.706 501.315c-7.686 0-15.28-2.418-21.777-7.139-10.646-7.735-16.323-20.181-15.185-33.292l11.335-130.64-85.946-99.025c-8.626-9.938-11.348-23.343-7.281-35.858 4.065-12.515 14.146-21.759 26.964-24.729l127.73-29.587 67.605-112.354c6.785-11.275 18.692-18.007 31.849-18.007 13.158 0 25.064 6.731 31.849 18.007l67.605 112.354 127.73 29.587c12.818 2.97 22.897 12.214 26.964 24.729 4.067 12.516 1.346 25.921-7.28 35.858l-85.947 99.025 11.335 130.641c1.138 13.11-4.539 25.556-15.185 33.291-10.646 7.734-24.235 9.286-36.348 4.153l-120.723-51.153-120.723 51.154c-4.72 2-9.665 2.985-14.571 2.985zm135.294-470.63c-6.079 0-11.579 3.11-14.713 8.319l-69.79 115.983c-1.396 2.32-3.674 3.975-6.311 4.586l-131.857 30.544c-5.922 1.372-10.579 5.643-12.457 11.425s-.621 11.977 3.364 16.568l88.724 102.225c1.775 2.045 2.644 4.722 2.411 7.419l-11.702 134.86c-.526 6.059 2.097 11.809 7.015 15.382 4.916 3.572 11.193 4.291 16.79 1.918l124.624-52.806c2.494-1.057 5.308-1.057 7.802 0l124.624 52.806c5.596 2.371 11.872 1.654 16.79-1.918 4.919-3.573 7.542-9.323 7.015-15.381l-11.702-134.861c-.233-2.697.636-5.374 2.411-7.419l88.725-102.225c3.985-4.592 5.242-10.785 3.363-16.568-1.879-5.782-6.536-10.053-12.457-11.425l-131.857-30.543c-2.638-.611-4.915-2.266-6.311-4.586l-69.79-115.983c-3.133-5.21-8.632-8.32-14.711-8.32z"/></g></g></svg>
