<?xml version="1.0" encoding="UTF-8" standalone="no"?><!DOCTYPE svg PUBLIC "-//W3C//DTD SVG 1.1//EN" "http://www.w3.org/Graphics/SVG/1.1/DTD/svg11.dtd"><svg width="100%" height="100%" viewBox="0 0 709 792" version="1.1" xmlns="http://www.w3.org/2000/svg" xmlns:xlink="http://www.w3.org/1999/xlink" xml:space="preserve" xmlns:serif="http://www.serif.com/" style="fill-rule:evenodd;clip-rule:evenodd;stroke-linejoin:round;stroke-miterlimit:2;"><rect id="Updated-Simple-logo" serif:id="Updated Simple logo" x="0" y="0" width="708.015" height="792" style="fill:none;"/><g id="Logo-4" serif:id="Logo 4"><path d="M263.938,485.204c-65.103,-32.96 -109.775,-100.512 -109.775,-178.415c0,-110.298 89.547,-199.845 199.845,-199.845c110.297,0 199.845,89.547 199.845,199.845c0,77.903 -44.672,145.455 -109.776,178.415l0,199.852l-180.139,0l0,-199.852Zm90.07,-237.829c32.791,0 59.413,26.623 59.413,59.414c0,32.791 -26.622,59.413 -59.413,59.413c-32.791,0 -59.414,-26.622 -59.414,-59.413c0,-32.791 26.623,-59.414 59.414,-59.414Z" style="fill:#f19d00;"/><clipPath id="_clip1"><path d="M263.938,485.204c-65.103,-32.96 -109.775,-100.512 -109.775,-178.415c0,-110.298 89.547,-199.845 199.845,-199.845c110.297,0 199.845,89.547 199.845,199.845c0,77.903 -44.672,145.455 -109.776,178.415l0,199.852l-180.139,0l0,-199.852Zm90.07,-237.829c32.791,0 59.413,26.623 59.413,59.414c0,32.791 -26.622,59.413 -59.413,59.413c-32.791,0 -59.414,-26.622 -59.414,-59.413c0,-32.791 26.623,-59.414 59.414,-59.414Z"/></clipPath><g clip-path="url(#_clip1)"><path d="M141.784,346.598l152.81,-143.819l154.86,104.01l96.842,-104.01l47.879,302.754l-384.868,38.062l-67.523,-196.997Z" style="fill:#ed6500;"/><path d="M133.219,417.445l131.481,-170.07l74.854,37.172l66.311,-95.737l165.789,219.586l-92.316,135.199l-252.905,0l-93.214,-126.15Z" style="fill:#fff;"/><circle cx="354.008" cy="599.305" r="203.305" style="fill:#347b65;"/><circle cx="357.467" cy="670.899" r="203.305" style="fill:#53bda0;"/><circle cx="357.902" cy="767.007" r="199.41" style="fill:#fff;"/><circle cx="406.256" cy="642.802" r="13.653" style="fill:#347b65;"/><rect x="344.205" y="449.254" width="27.305" height="118.805" style="fill:#347b65;"/><rect x="391.133" y="449.254" width="27.305" height="77.07" style="fill:#347b65;"/><path d="M305.67,629.149l0,27.305l65.84,0l0,-27.305l-65.84,0Z" style="fill:#347b65;"/><rect x="296.497" y="449.254" width="27.305" height="207.201" style="fill:#347b65;"/></g></g></svg>