<svg id="Layer_3" enable-background="new 0 0 64 64" height="512" viewBox="0 0 64 64" width="512" xmlns="http://www.w3.org/2000/svg" fill="white"><g><path d="m62 57h-1v-55c0-.552-.447-1-1-1h-24c-.553 0-1 .448-1 1v17h-9.003c.644-1.54 1.003-3.229 1.003-5 0-7.168-5.832-13-13-13s-13 5.832-13 13c0 6.134 4.276 11.277 10 12.637v30.363h-9c-.553 0-1 .448-1 1v4c0 .552.447 1 1 1h60c.553 0 1-.448 1-1v-4c0-.552-.447-1-1-1zm-9 0v-3c0-2.757-2.243-5-5-5s-5 2.243-5 5v3h-6v-10h22v10zm-2 0h-6v-3c0-1.654 1.346-3 3-3s3 1.346 3 3zm8-54v42h-22v-42zm-24 18v2h-11.641c.589-.612 1.117-1.282 1.578-2zm-32-7c0-6.065 4.935-11 11-11s11 4.935 11 11-4.935 11-11 11-11-4.935-11-11zm10 12.949c.331.026.662.051 1 .051 2.535 0 4.895-.74 6.896-2h14.104v32h-6v-3c0-2.757-2.243-5-5-5s-5 2.243-5 5v3h-6zm14 30.051h-6v-3c0-1.654 1.346-3 3-3s3 1.346 3 3zm34 4h-58v-2h58z"/><path d="m40 13h6c.553 0 1-.448 1-1v-6c0-.552-.447-1-1-1h-6c-.553 0-1 .448-1 1v6c0 .552.447 1 1 1zm1-6h4v4h-4z"/><path d="m50 13h6c.553 0 1-.448 1-1v-6c0-.552-.447-1-1-1h-6c-.553 0-1 .448-1 1v6c0 .552.447 1 1 1zm1-6h4v4h-4z"/><path d="m40 23h6c.553 0 1-.448 1-1v-6c0-.552-.447-1-1-1h-6c-.553 0-1 .448-1 1v6c0 .552.447 1 1 1zm1-6h4v4h-4z"/><path d="m50 23h6c.553 0 1-.448 1-1v-6c0-.552-.447-1-1-1h-6c-.553 0-1 .448-1 1v6c0 .552.447 1 1 1zm1-6h4v4h-4z"/><path d="m40 33h6c.553 0 1-.448 1-1v-6c0-.552-.447-1-1-1h-6c-.553 0-1 .448-1 1v6c0 .552.447 1 1 1zm1-6h4v4h-4z"/><path d="m50 33h6c.553 0 1-.448 1-1v-6c0-.552-.447-1-1-1h-6c-.553 0-1 .448-1 1v6c0 .552.447 1 1 1zm1-6h4v4h-4z"/><path d="m16 37h6c.553 0 1-.448 1-1v-6c0-.552-.447-1-1-1h-6c-.553 0-1 .448-1 1v6c0 .552.447 1 1 1zm1-6h4v4h-4z"/><path d="m26 37h6c.553 0 1-.448 1-1v-6c0-.552-.447-1-1-1h-6c-.553 0-1 .448-1 1v6c0 .552.447 1 1 1zm1-6h4v4h-4z"/><path d="m22 47c.553 0 1-.448 1-1v-6c0-.552-.447-1-1-1h-6c-.553 0-1 .448-1 1v6c0 .552.447 1 1 1zm-5-6h4v4h-4z"/><path d="m26 47h6c.553 0 1-.448 1-1v-6c0-.552-.447-1-1-1h-6c-.553 0-1 .448-1 1v6c0 .552.447 1 1 1zm1-6h4v4h-4z"/><path d="m40 43h6c.553 0 1-.448 1-1v-6c0-.552-.447-1-1-1h-6c-.553 0-1 .448-1 1v6c0 .552.447 1 1 1zm1-6h4v4h-4z"/><path d="m50 43h6c.553 0 1-.448 1-1v-6c0-.552-.447-1-1-1h-6c-.553 0-1 .448-1 1v6c0 .552.447 1 1 1zm1-6h4v4h-4z"/><path d="m15 23v-2.142c1.721-.447 3-2 3-3.858 0-2.206-1.794-4-4-4-1.103 0-2-.897-2-2s.897-2 2-2 2 .897 2 2h2c0-1.858-1.279-3.411-3-3.858v-2.142h-2v2.142c-1.721.447-3 2-3 3.858 0 2.206 1.794 4 4 4 1.103 0 2 .897 2 2s-.897 2-2 2-2-.897-2-2h-2c0 1.858 1.279 3.411 3 3.858v2.142z"/></g></svg>
