<?xml version="1.0" encoding="iso-8859-1"?>
<!-- Generator: Adobe Illustrator 19.0.0, SVG Export Plug-In . SVG Version: 6.00 Build 0)  -->
<svg version="1.1" id="Capa_1" xmlns="http://www.w3.org/2000/svg" xmlns:xlink="http://www.w3.org/1999/xlink" x="0px" y="0px"
	 viewBox="0 0 512.001 512.001" style="enable-background:new 0 0 512.001 512.001;" xml:space="preserve" fill="white">
<g>
	<g>
		<path d="M473.964,379.743l-63.357-65.555c-0.059-0.061-0.119-0.122-0.179-0.182c-17.586-17.586-46.048-17.588-63.635,0
			l-28.926,28.925c-13.321,13.322-34.884,13.324-48.207,0c-0.006-0.006-0.012-0.012-0.018-0.018l-100.593-98.214
			c-13.322-13.322-13.324-34.885,0-48.208l28.925-28.925c17.545-17.544,17.545-46.091,0-63.635l-63.635-63.635
			c-17.545-17.543-46.091-17.543-63.635,0c-0.006,0.006-21.216,21.217-21.211,21.211c-0.005,0.006-1.923,1.923-1.928,1.929
			c-63.408,63.407-63.431,166.04,0.01,229.481l173.877,171.498c63.267,63.267,165.727,63.503,229.248,0.223
			c0.348-0.321,22.828-21.027,23.163-21.362C491.372,425.765,491.406,397.295,473.964,379.743z M91.916,61.507
			c5.848-5.848,15.363-5.848,21.211,0l63.635,63.635c5.862,5.863,5.863,15.349,0,21.212l-10.605,10.605L81.31,72.113L91.916,61.507z
			 M242.653,443.194L68.776,271.696c-48.998-48.999-51.322-126.265-8.277-177.971l84.549,84.549
			c-22.145,25.141-21.224,63.623,2.808,87.655l100.611,98.232c24.047,24.028,62.406,25.017,87.62,2.773l84.542,84.542
			C368.413,494.851,291.612,492.152,242.653,443.194z M452.829,421.883l-10.08,9.289l-85.35-85.35l10.605-10.605
			c5.843-5.842,15.274-5.86,21.137-0.075c0.117,0.121,63.391,65.591,63.51,65.709C458.44,406.641,458.499,416.022,452.829,421.883z"
			/>
	</g>
</g>
<g>
	<g>
		<path d="M257.02,0.02c-8.283,0-14.999,6.716-14.999,14.999s6.716,14.999,14.999,14.999c124.056,0,224.983,100.927,224.983,224.983
			c0,8.283,6.716,14.999,14.999,14.999s14.999-6.715,14.999-14.999C512.001,114.072,397.96,0.02,257.02,0.02z"/>
	</g>
</g>
<g>
	<g>
		<path d="M257.02,60.015c-8.283,0-14.999,6.716-14.999,14.999s6.716,14.999,14.999,14.999c90.974,0,164.988,74.013,164.988,164.988
			c0,8.283,6.716,14.999,14.999,14.999s14.999-6.715,14.999-14.999C452.006,147.486,364.535,60.015,257.02,60.015z"/>
	</g>
</g>
<g>
	<g>
		<path d="M257.02,120.011c-8.283,0-14.999,6.716-14.999,14.999s6.716,14.999,14.999,14.999
			c57.893,0,104.992,47.099,104.992,104.992c0,8.283,6.716,14.999,14.999,14.999s14.999-6.715,14.999-14.999
			C392.01,180.567,331.454,120.011,257.02,120.011z"/>
	</g>
</g>
<g>
	<g>
		<path d="M257.02,180.006c-8.283,0-14.999,6.716-14.999,14.999s6.716,14.999,14.999,14.999c24.811,0,44.997,20.185,44.997,44.997
			c0,8.283,6.716,14.999,14.999,14.999s14.999-6.715,14.999-14.999C332.014,213.649,298.372,180.006,257.02,180.006z"/>
	</g>
</g>
<g>
</g>
<g>
</g>
<g>
</g>
<g>
</g>
<g>
</g>
<g>
</g>
<g>
</g>
<g>
</g>
<g>
</g>
<g>
</g>
<g>
</g>
<g>
</g>
<g>
</g>
<g>
</g>
<g>
</g>
</svg>
